PathFileType	4	(X/Y/Z)	/Users/itak/Documents/Research/Walk-IL/dataset/trc/00225_00009.trc
DataRate	CameraRate	NumFrames	NumMarkers	Units	OrigDataRate	OrigDataStartFrame	OrigNumFrames
100.000000	100.000000	4	53	mm	100.000000	341	455
Frame#	Time	RPSI			LPSI			L3			STRN			T10			C7			CLAV			RBAK			LBAK			LSHO			LUPA			LAEL			LAOL			LWTS			LWPS			LFRA			LIFD			LHPS			LHTS			RSHO			RUPA			RAEL			RAOL			RWTS			RWPS			RFRA			RIFD			RHTS			RHPS			RBHD			LFHD			RFHD			LBHD			LHIP			RHIP			RASI			LASI			LKNE			LTHI			LANK			LTIP			LTOE			LMT1			LMT5			LHEE			RKNE			RANK			RTIP			RTOE			RMT1			RMT5			RHEE			RTHI			
		X1	Y1	Z1	X2	Y2	Z2	X3	Y3	Z3	X4	Y4	Z4	X5	Y5	Z5	X6	Y6	Z6	X7	Y7	Z7	X8	Y8	Z8	X9	Y9	Z9	X10	Y10	Z10	X11	Y11	Z11	X12	Y12	Z12	X13	Y13	Z13	X14	Y14	Z14	X15	Y15	Z15	X16	Y16	Z16	X17	Y17	Z17	X18	Y18	Z18	X19	Y19	Z19	X20	Y20	Z20	X21	Y21	Z21	X22	Y22	Z22	X23	Y23	Z23	X24	Y24	Z24	X25	Y25	Z25	X26	Y26	Z26	X27	Y27	Z27	X28	Y28	Z28	X29	Y29	Z29	X30	Y30	Z30	X31	Y31	Z31	X32	Y32	Z32	X33	Y33	Z33	X34	Y34	Z34	X35	Y35	Z35	X36	Y36	Z36	X37	Y37	Z37	X38	Y38	Z38	X39	Y39	Z39	X40	Y40	Z40	X41	Y41	Z41	X42	Y42	Z42	X43	Y43	Z43	X44	Y44	Z44	X45	Y45	Z45	X46	Y46	Z46	X47	Y47	Z47	X48	Y48	Z48	X49	Y49	Z49	X50	Y50	Z50	X51	Y51	Z51	X52	Y52	Z52	X53	Y53	Z53	

342	3.41	374.8143615722656	1036.922241210938	-49.45681381225586	360.9447021484375	1043.976440429688	69.91912078857422	363.2505493164062	1122.076416015625	21.86287117004395	111.9124069213867	1300.830810546875	3.91579532623291	370.4636535644531	1247.130737304688	11.66193866729736	299.7860717773438	1507.076904296875	7.522245407104492	133.4363403320312	1419.454711914062	2.532268285751343	383.612060546875	1371.2568359375	-62.27957534790039	315.0204162597656	1470.04833984375	119.280143737793	223.6115570068359	1471.021606445312	173.2055053710938	259.001708984375	1356.739868164062	257.123046875	267.8977661132812	1148.90087890625	293.5983276367188	337.1603088378906	1137.426513671875	241.2833099365234	212.9718017578125	898.1490478515625	264.7490844726562	247.4204406738281	895.0436401367188	342.1885681152344	262.6847839355469	1042.086791992188	317.1333312988281	248.9806518554688	707.9185180664062	291.491943359375	248.2355346679688	805.2262573242188	347.84423828125	200.8673248291016	794.8009643554688	298.9779052734375	247.9524078369141	1462.69140625	-162.5245513916016	271.44482421875	1397.571166992188	-227.8198852539062	296.6661987304688	1118.761352539062	-268.0904846191406	323.4796142578125	1108.773681640625	-177.0360260009766	157.6816253662109	902.8795166015625	-250.0787811279297	219.48876953125	891.9144897460938	-308.746337890625	273.0087280273438	1051.577270507812	-285.7365417480469	148.0096740722656	709.5648803710938	-253.6226654052734	122.3762664794922	782.7950439453125	-275.0660705566406	181.6552429199219	784.35400390625	-318.3250122070312	278.9567260742188	1642.974975585938	-48.17989349365234	88.36369323730469	1725.818969726562	43.69550323486328	88.98087310791016	1722.440063476562	-56.41278076171875	235.8447570800781	1661.324951171875	84.06855010986328	239.3077239990234	984.2550659179688	195.6114349365234	294.46826171875	989.49169921875	-167.1466064453125	191.1878356933594	1033.193481445312	-144.2821655273438	149.5838775634766	1019.940551757812	131.7195587158203	96.35195922851562	517.6288452148438	132.3965911865234	137.4998779296875	653.257080078125	167.4880981445312	136.6833648681641	33.14755630493164	136.427734375	114.3723449707031	284.9205932617188	141.6284484863281	-64.20314025878906	62.50933074951172	50.55735397338867	7.075847148895264	47.8469352722168	16.40335464477539	7.788556098937988	40.91650390625	129.3842468261719	205.8031311035156	38.87435531616211	91.14198303222656	279.8266296386719	496.0140380859375	-136.5181732177734	551.2938232421875	75.35248565673828	-98.98709106445312	315.5596923828125	379.4752502441406	-120.0002136230469	350.7480163574219	41.44575119018555	-64.96612548828125	398.1832275390625	49.14797210693359	-18.15351104736328	450.8750610351562	36.06233596801758	-125.3991851806641	605.0033569335938	107.8694000244141	-39.76895141601562	248.2230072021484	763.3347778320312	-176.4801025390625	
343	3.42	381.895263671875	1036.331176757812	-51.35218811035156	368.4152221679688	1043.627197265625	68.06245422363281	370.1680603027344	1121.465454101562	20.00159645080566	117.9873733520508	1299.211547851562	2.41617226600647	376.4916687011719	1246.533813476562	9.676506042480469	305.0700073242188	1506.257568359375	6.128671169281006	139.0472106933594	1417.892822265625	1.120094656944275	389.3122253417969	1370.742797851562	-63.93722915649414	320.447265625	1469.18798828125	117.8747940063477	229.0030364990234	1469.669921875	171.7828216552734	264.7576599121094	1355.475708007812	255.5877380371094	274.7054748535156	1147.83251953125	292.34130859375	344.0100402832031	1136.592651367188	240.0069732666016	220.8455505371094	896.8390502929688	263.8520812988281	255.4464874267578	893.94921875	341.236572265625	270.0505981445312	1041.019653320312	316.0032958984375	257.6626892089844	706.7984008789062	290.6347045898438	256.640380859375	804.1180419921875	346.9620666503906	209.223388671875	793.4735107421875	298.1981811523438	253.2285614013672	1461.81884765625	-163.8986968994141	276.7494812011719	1396.822509765625	-229.3794403076172	301.8069763183594	1117.916137695312	-269.8722839355469	329.0363464355469	1107.8828125	-178.9597778320312	161.5093231201172	902.9982299804688	-250.8104705810547	223.0218658447266	891.3662719726562	-309.6690979003906	277.7592468261719	1050.736694335938	-287.3280029296875	149.781494140625	709.88134765625	-254.0896759033203	124.9181900024414	783.3035278320312	-275.5690002441406	184.1450500488281	784.203857421875	-318.9619750976562	284.0993347167969	1641.918823242188	-49.31558609008789	93.458251953125	1724.48583984375	42.7661247253418	94.064208984375	1721.267456054688	-57.37165451049805	240.9973754882812	1660.014892578125	82.97655487060547	247.3758697509766	983.9396362304688	194.2221832275391	301.6394653320312	988.303466796875	-168.8755645751953	198.1631164550781	1031.692993164062	-145.9365386962891	157.2404479980469	1018.996215820312	130.1094970703125	100.7896575927734	518.2098388671875	131.5259094238281	143.24853515625	653.4207763671875	166.5537872314453	136.5391998291016	33.28411102294922	136.3230285644531	116.6897277832031	285.4016723632812	141.1279144287109	-63.79854965209961	63.89737319946289	49.50432586669922	7.634972095489502	48.89742660522461	15.73385620117188	7.797323703765869	41.5709342956543	128.6661224365234	206.0054931640625	38.79011154174805	91.35498046875	290.3463439941406	495.0856323242188	-136.8008270263672	553.999755859375	70.00918579101562	-97.09181976318359	324.9723815917969	378.2575378417969	-120.0980377197266	351.4552307128906	41.64995956420898	-64.79335784912109	399.2144470214844	48.20924758911133	-17.97747421264648	452.473876953125	34.71808624267578	-124.9427719116211	608.392822265625	100.6480941772461	-37.34633636474609	256.8926086425781	762.0254516601562	-177.785888671875	
344	3.43	389.0973205566406	1035.750854492188	-53.34362030029297	376.0450134277344	1043.232666015625	66.12010192871094	377.2552795410156	1120.901245117188	18.08647918701172	124.143669128418	1297.560668945312	0.9259198307991028	382.6336364746094	1246.013061523438	7.651813983917236	310.3103332519531	1505.476806640625	4.684816360473633	144.6643524169922	1416.294799804688	-0.3203873038291931	395.0171813964844	1370.29638671875	-65.65434265136719	325.8806457519531	1468.389892578125	116.433952331543	234.3939971923828	1468.328979492188	170.3240051269531	270.4794616699219	1354.1982421875	253.9743499755859	281.296630859375	1146.727661132812	290.986572265625	350.691650390625	1135.70556640625	238.7089385986328	228.4849700927734	895.5176391601562	262.7259521484375	263.09521484375	892.8385009765625	340.1162414550781	277.1159057617188	1039.92333984375	314.7328491210938	266.0588073730469	705.6587524414062	289.6204833984375	264.6399841308594	802.9925537109375	345.9161682128906	217.2752685546875	792.124267578125	297.1636047363281	258.4603271484375	1460.929931640625	-165.2972412109375	282.0109252929688	1396.077026367188	-230.9743499755859	306.9713439941406	1117.079833984375	-271.7286987304688	334.6759033203125	1106.998046875	-180.9810485839844	165.3873291015625	903.1627807617188	-251.5105133056641	226.5411834716797	890.8282470703125	-310.5741271972656	282.5177917480469	1049.892944335938	-288.9715576171875	151.4919128417969	710.2728271484375	-254.47216796875	127.4268646240234	783.87939453125	-275.9871520996094	186.5799560546875	784.0934448242188	-319.5413513183594	289.1715698242188	1640.88037109375	-50.5006103515625	98.43830871582031	1723.109619140625	41.75998687744141	99.03917694091797	1720.04150390625	-58.39834976196289	246.0667877197266	1658.722778320312	81.82846069335938	255.7256469726562	983.5387573242188	192.8345489501953	308.8523864746094	987.24560546875	-170.6964721679688	205.2021636962891	1030.222778320312	-147.562255859375	165.0755462646484	1018.042663574219	128.58544921875	105.4023742675781	518.790771484375	130.6689910888672	149.1813507080078	653.5564575195312	165.6089630126953	136.4233093261719	33.42020416259766	136.1462249755859	119.1789932250977	285.8928527832031	140.6495361328125	-63.29188537597656	65.51818084716797	48.55500411987305	8.230503082275391	50.09023284912109	15.12703990936279	7.884780406951904	42.43278503417969	128.0196228027344	206.2738647460938	38.64425659179688	91.54167938232422	300.4142761230469	494.2337036132812	-137.0590209960938	556.3482666015625	65.10936737060547	-95.21123504638672	333.8891296386719	377.1192626953125	-120.1482772827148	352.0213012695312	41.8205451965332	-64.67911529541016	400.0971069335938	47.31961441040039	-17.85745239257812	453.9089965820312	33.76161575317383	-124.5848846435547	611.33251953125	93.80248260498047	-34.88583374023438	265.3904724121094	760.7986450195312	-179.0526733398438	
345	3.44	396.4083557128906	1035.209594726562	-55.39701461791992	383.8073425292969	1042.814086914062	64.12413787841797	384.4897766113281	1120.412231445312	16.13354110717773	130.3764495849609	1295.910278320312	-0.5378558039665222	388.8943176269531	1245.587646484375	5.607004642486572	315.520263671875	1504.75	3.189567565917969	150.3066253662109	1414.7001953125	-1.76371693611145	400.7233581542969	1369.932739257812	-67.43340301513672	331.3388977050781	1467.669555664062	114.9520568847656	239.8162231445312	1467.030517578125	168.8369293212891	276.2124633789062	1352.939819335938	252.2908782958984	287.7162475585938	1145.614501953125	289.5242004394531	357.2226867675781	1134.783569335938	237.3469848632812	235.8711700439453	894.2196655273438	261.3892517089844	270.3809814453125	891.7412109375	338.8296508789062	283.9136352539062	1038.826049804688	313.3173828125	274.1463928222656	704.53271484375	288.453369140625	272.2399291992188	801.8831176757812	344.7062377929688	224.9983520507812	790.7911376953125	295.8937072753906	263.6405029296875	1460.043823242188	-166.7158203125	287.2197570800781	1395.354858398438	-232.5970458984375	312.1502685546875	1116.27685546875	-273.6500549316406	340.3929748535156	1106.1455078125	-183.0899353027344	169.3329467773438	903.3877563476562	-252.1817779541016	230.0619506835938	890.3189086914062	-311.4635314941406	287.2819519042969	1049.072509765625	-290.6596069335938	153.2299194335938	710.738037109375	-254.7608642578125	129.9490203857422	784.5200805664062	-276.3155212402344	188.9960174560547	784.0325317382812	-320.0632629394531	294.1786499023438	1639.881958007812	-51.73399353027344	103.3118743896484	1721.70751953125	40.68088912963867	103.9081268310547	1718.77490234375	-59.48682022094727	251.0664215087891	1657.475708007812	80.62618255615234	264.3072204589844	983.0651245117188	191.4441528320312	316.1107788085938	986.3424682617188	-172.5837554931641	212.3011474609375	1028.8271484375	-149.1534881591797	173.0508422851562	1017.100952148438	127.1528701782227	110.2028961181641	519.3779296875	129.8411865234375	155.3043518066406	653.6737670898438	164.6676330566406	136.3656463623047	33.56657791137695	135.8996429443359	121.8817138671875	286.4003601074219	140.213134765625	-62.66098785400391	67.42543029785156	47.77095031738281	8.872773170471191	51.46225738525391	14.62639713287354	8.083073616027832	43.54336166381836	127.4885482788086	206.6162719726562	38.40030288696289	91.68399047851562	309.9855651855469	493.4675598144531	-137.2708435058594	558.3621215820312	60.63054656982422	-93.44019317626953	342.2417297363281	376.0426635742188	-120.1393814086914	352.5058898925781	41.95740127563477	-64.58573913574219	400.881103515625	46.4534912109375	-17.75770950317383	455.187255859375	33.08383560180664	-124.3157196044922	613.854736328125	87.36768341064453	-32.52615356445312	273.7089233398438	759.65869140625	-180.2519836425781	
